<svg width="107" height="19" viewBox="0 0 107 19" fill="none" xmlns="http://www.w3.org/2000/svg">
<g clip-path="url(#clip0_305_206)">
<path d="M8.41573 19C6.18374 19 4.04317 18.0538 2.46491 16.3695C0.886655 14.6852 0 12.4008 0 10.0189H16.8315C16.8315 12.4008 15.9448 14.6852 14.3666 16.3695C12.7883 18.0538 10.6477 19 8.41573 19V19Z" fill="#5E00F5"/>
<path d="M15.9102 8.97949C15.8818 6.87802 15.0797 4.87286 13.6772 3.39747C12.2746 1.92208 10.3843 1.09499 8.41496 1.09499C6.44557 1.09499 4.5553 1.92208 3.15275 3.39747C1.75021 4.87286 0.948071 6.87802 0.919744 8.97949H0C0 6.59756 0.886655 4.31318 2.46491 2.6289C4.04317 0.944614 6.18374 -0.00160625 8.41573 -0.00160625C10.6477 -0.00160625 12.7883 0.944614 14.3666 2.6289C15.9448 4.31318 16.8315 6.59756 16.8315 8.97949H15.9102Z" fill="#FF7966"/>
<path d="M8.4158 2.24781C10.0884 2.24956 11.692 2.9593 12.8749 4.22131C14.0578 5.48332 14.7232 7.19452 14.7253 8.97949H13.804C13.78 7.47113 13.2017 6.03321 12.1937 4.97557C11.1857 3.91793 9.82863 3.32525 8.41502 3.32525C7.00141 3.32525 5.64438 3.91793 4.63637 4.97557C3.62835 6.03321 3.05005 7.47113 3.02607 8.97949H2.10632C2.10838 7.19452 2.77383 5.48332 3.95669 4.22131C5.13954 2.9593 6.74319 2.24956 8.4158 2.24781V2.24781Z" fill="#FFD2CC"/>
</g>
<path d="M28.0611 15.4225V5.60814H24.7587V3.57759H33.5003V5.60814H30.1979V15.4225H28.0611Z" fill="white"/>
<path d="M34.9668 15.4225V3.57759H39.888C40.6003 3.57759 41.2208 3.70732 41.7497 3.96678C42.2785 4.22624 42.6886 4.59286 42.98 5.06666C43.2714 5.54045 43.417 6.09886 43.417 6.74187V6.94492C43.417 7.65561 43.2552 8.23094 42.9314 8.67089C42.6076 9.11084 42.2083 9.43235 41.7335 9.6354V9.93998C42.1652 9.96255 42.4997 10.1205 42.7371 10.4138C42.9746 10.6958 43.0933 11.0737 43.0933 11.5475V15.4225H40.9564V11.869C40.9564 11.5983 40.8863 11.3783 40.746 11.2091C40.6165 11.0399 40.3952 10.9553 40.0823 10.9553H37.1036V15.4225H34.9668ZM37.1036 8.92471H39.6614C40.1686 8.92471 40.5625 8.7837 40.8431 8.50168C41.1345 8.20837 41.2802 7.82483 41.2802 7.35103V7.18182C41.2802 6.70802 41.1399 6.33011 40.8593 6.04809C40.5787 5.75479 40.1794 5.60814 39.6614 5.60814H37.1036V8.92471Z" fill="white"/>
<path d="M44.4293 15.4225L47.4079 3.57759H51.1313L54.1099 15.4225H51.9083L51.2931 12.8166H47.2461L46.6309 15.4225H44.4293ZM47.7479 10.7522H50.7913L49.4153 4.98205H49.1239L47.7479 10.7522Z" fill="white"/>
<path d="M59.6888 15.6594C58.2858 15.6594 57.1742 15.2533 56.354 14.441C55.5338 13.6175 55.1237 12.4443 55.1237 10.9214V8.07865C55.1237 6.55573 55.5338 5.38816 56.354 4.57594C57.1742 3.75244 58.2858 3.34069 59.6888 3.34069C61.081 3.34069 62.1548 3.74116 62.9102 4.5421C63.6765 5.33176 64.0596 6.42036 64.0596 7.8079V7.90943H61.9551V7.74022C61.9551 7.04081 61.7663 6.46548 61.3885 6.01425C61.0216 5.56302 60.455 5.3374 59.6888 5.3374C58.9333 5.3374 58.3398 5.57994 57.9081 6.06501C57.4764 6.55009 57.2605 7.21002 57.2605 8.0448V10.9553C57.2605 11.7788 57.4764 12.4387 57.9081 12.935C58.3398 13.4201 58.9333 13.6627 59.6888 13.6627C60.455 13.6627 61.0216 13.437 61.3885 12.9858C61.7663 12.5233 61.9551 11.948 61.9551 11.2598V10.9553H64.0596V11.1922C64.0596 12.5797 63.6765 13.6739 62.9102 14.4749C62.1548 15.2645 61.081 15.6594 59.6888 15.6594Z" fill="white"/>
<path d="M65.812 15.4225V3.57759H67.9488V8.2817H68.2402L71.915 3.57759H74.6508L69.9238 9.41542L74.8127 15.4225H71.9959L68.2402 10.6168H67.9488V15.4225H65.812Z" fill="white"/>
<path d="M76.5 15.4224V3.57747H83.7847V5.60803H78.6369V8.43388H83.3315V10.4644H78.6369V13.3918H83.8819V15.4224H76.5Z" fill="white"/>
<path d="M85.4749 15.4224V3.57747H90.3961C91.1084 3.57747 91.7289 3.7072 92.2578 3.96666C92.7866 4.22612 93.1967 4.59275 93.4881 5.06655C93.7795 5.54034 93.9252 6.09874 93.9252 6.74175V6.94481C93.9252 7.6555 93.7633 8.23082 93.4395 8.67077C93.1157 9.11073 92.7164 9.43223 92.2416 9.63529V9.93987C92.6733 9.96243 93.0078 10.1204 93.2452 10.4137C93.4827 10.6957 93.6014 11.0736 93.6014 11.5474V15.4224H91.4645V11.8689C91.4645 11.5982 91.3944 11.3782 91.2541 11.209C91.1246 11.0398 90.9033 10.9551 90.5904 10.9551H87.6117V15.4224H85.4749ZM87.6117 8.92459H90.1695C90.6767 8.92459 91.0706 8.78358 91.3512 8.50156C91.6426 8.20826 91.7883 7.82471 91.7883 7.35092V7.1817C91.7883 6.70791 91.648 6.33 91.3674 6.04798C91.0868 5.75468 90.6875 5.60803 90.1695 5.60803H87.6117V8.92459Z" fill="white"/>
<defs>
<clipPath id="clip0_305_206">
<rect width="16.8315" height="19" fill="white" transform="matrix(1 0 0 -1 0 19)"/>
</clipPath>
</defs>
</svg>
