<svg width="146" height="24" viewBox="0 0 146 24" fill="none" xmlns="http://www.w3.org/2000/svg">
<g clip-path="url(#clip0_305_185)">
<path d="M11.4831 24C8.43763 24 5.51684 22.8048 3.36334 20.6773C1.20983 18.5497 0 15.6642 0 12.6555H22.9663C22.9663 15.6642 21.7565 18.5497 19.603 20.6773C17.4495 22.8048 14.5287 24 11.4831 24V24Z" fill="#5E00F5"/>
<path d="M21.7092 11.3425C21.6705 8.68804 20.576 6.15521 18.6623 4.29156C16.7485 2.42791 14.1693 1.38316 11.4821 1.38316C8.79489 1.38316 6.21564 2.42791 4.30188 4.29156C2.38813 6.15521 1.29363 8.68804 1.25498 11.3425H0C0 8.33377 1.20983 5.44824 3.36334 3.32073C5.51684 1.19321 8.43763 -0.00201508 11.4831 -0.00201508C14.5287 -0.00201508 17.4495 1.19321 19.603 3.32073C21.7565 5.44824 22.9663 8.33377 22.9663 11.3425H21.7092Z" fill="#FF7966"/>
<path d="M11.4832 2.83935C13.7654 2.84156 15.9536 3.73807 17.5676 5.33219C19.1816 6.92631 20.0896 9.08783 20.0924 11.3425H18.8353C18.8026 9.43723 18.0135 7.6209 16.638 6.28494C15.2626 4.94898 13.411 4.20033 11.4821 4.20033C9.55327 4.20033 7.70163 4.94898 6.3262 6.28494C4.95078 7.6209 4.16169 9.43723 4.12897 11.3425H2.87399C2.87679 9.08783 3.7848 6.92631 5.39879 5.33219C7.01278 3.73807 9.20094 2.84156 11.4832 2.83935V2.83935Z" fill="#FFD2CC"/>
</g>
<path d="M38.289 19.4813V7.08424H33.7829V4.51933H45.7108V7.08424H41.2047V19.4813H38.289Z" fill="white"/>
<path d="M47.7117 19.4813V4.51933H54.4267C55.3986 4.51933 56.2453 4.6832 56.9669 5.01094C57.6884 5.33868 58.248 5.80179 58.6456 6.40027C59.0432 6.99874 59.242 7.70409 59.242 8.51631V8.7728C59.242 9.67052 59.0211 10.3972 58.5793 10.953C58.1376 11.5087 57.5927 11.9148 56.9448 12.1713V12.556C57.5338 12.5845 57.9903 12.784 58.3143 13.1545C58.6382 13.5108 58.8002 13.9881 58.8002 14.5866V19.4813H55.8845V14.9927C55.8845 14.6507 55.7888 14.3728 55.5974 14.1591C55.4206 13.9454 55.1188 13.8385 54.6917 13.8385H50.6274V19.4813H47.7117ZM50.6274 11.2736H54.1174C54.8095 11.2736 55.347 11.0955 55.7299 10.7392C56.1275 10.3687 56.3263 9.88426 56.3263 9.28578V9.07204C56.3263 8.47356 56.1349 7.99621 55.752 7.63997C55.3691 7.26948 54.8243 7.08424 54.1174 7.08424H50.6274V11.2736Z" fill="white"/>
<path d="M60.6232 19.4813L64.6875 4.51933H69.7679L73.8322 19.4813H70.8282L69.9888 16.1897H64.4666L63.6273 19.4813H60.6232ZM65.1514 13.582H69.3041L67.4265 6.29339H67.0289L65.1514 13.582Z" fill="white"/>
<path d="M81.4445 19.7805C79.5302 19.7805 78.0134 19.2675 76.8943 18.2416C75.7751 17.2014 75.2155 15.7194 75.2155 13.7957V10.2049C75.2155 8.28119 75.7751 6.80638 76.8943 5.78041C78.0134 4.7402 79.5302 4.22009 81.4445 4.22009C83.3442 4.22009 84.8094 4.72595 85.8402 5.73766C86.8857 6.73513 87.4085 8.1102 87.4085 9.86289V9.99113H84.537V9.77739C84.537 8.89392 84.2793 8.1672 83.7639 7.59722C83.2632 7.02724 82.4901 6.74225 81.4445 6.74225C80.4137 6.74225 79.6038 7.04862 79.0148 7.66134C78.4258 8.27407 78.1312 9.10766 78.1312 10.1621V13.8385C78.1312 14.8787 78.4258 15.7123 79.0148 16.3393C79.6038 16.952 80.4137 17.2584 81.4445 17.2584C82.4901 17.2584 83.2632 16.9734 83.7639 16.4034C84.2793 15.8192 84.537 15.0924 84.537 14.2232V13.8385H87.4085V14.1377C87.4085 15.8904 86.8857 17.2726 85.8402 18.2843C84.8094 19.2818 83.3442 19.7805 81.4445 19.7805Z" fill="white"/>
<path d="M89.7996 19.4813V4.51933H92.7153V10.4614H93.1129L98.127 4.51933H101.86L95.4101 11.8934L102.081 19.4813H98.2374L93.1129 13.411H92.7153V19.4813H89.7996Z" fill="white"/>
<path d="M103.749 19.4813V4.51933H113.689V7.08424H106.665V10.6537H113.07V13.2186H106.665V16.9164H113.821V19.4813H103.749Z" fill="white"/>
<path d="M115.47 19.4809V4.51897H122.185C123.157 4.51897 124.003 4.68283 124.725 5.01057C125.446 5.33831 126.006 5.80142 126.404 6.3999C126.801 6.99838 127 7.70373 127 8.51595V8.77244C127 9.67015 126.779 10.3969 126.337 10.9526C125.896 11.5083 125.351 11.9144 124.703 12.1709V12.5557C125.292 12.5842 125.748 12.7837 126.072 13.1542C126.396 13.5104 126.558 13.9877 126.558 14.5862V19.4809H123.643V14.9923C123.643 14.6504 123.547 14.3725 123.355 14.1587C123.179 13.945 122.877 13.8381 122.45 13.8381H118.385V19.4809H115.47ZM118.385 11.2732H121.875C122.568 11.2732 123.105 11.0951 123.488 10.7389C123.885 10.3684 124.084 9.8839 124.084 9.28542V9.07168C124.084 8.4732 123.893 7.99584 123.51 7.6396C123.127 7.26912 122.582 7.08387 121.875 7.08387H118.385V11.2732Z" fill="white"/>
<defs>
<clipPath id="clip0_305_185">
<rect width="22.9663" height="24" fill="white" transform="matrix(1 0 0 -1 0 24)"/>
</clipPath>
</defs>
</svg>
