<svg width="146" height="24" viewBox="0 0 146 24" fill="none" xmlns="http://www.w3.org/2000/svg">
<g clip-path="url(#clip0_305_192)">
<path d="M11.4831 24C8.43763 24 5.51684 22.8048 3.36334 20.6773C1.20983 18.5497 0 15.6642 0 12.6555H22.9663C22.9663 15.6642 21.7565 18.5497 19.603 20.6773C17.4495 22.8048 14.5287 24 11.4831 24V24Z" fill="#5E00F5"/>
<path d="M21.7092 11.3425C21.6705 8.68804 20.576 6.15521 18.6623 4.29156C16.7485 2.42791 14.1693 1.38316 11.4821 1.38316C8.79489 1.38316 6.21564 2.42791 4.30188 4.29156C2.38813 6.15521 1.29363 8.68804 1.25498 11.3425H0C0 8.33377 1.20983 5.44824 3.36334 3.32073C5.51684 1.19321 8.43763 -0.00201508 11.4831 -0.00201508C14.5287 -0.00201508 17.4495 1.19321 19.603 3.32073C21.7565 5.44824 22.9663 8.33377 22.9663 11.3425H21.7092Z" fill="#FF7966"/>
<path d="M11.4832 2.83935C13.7654 2.84156 15.9536 3.73807 17.5676 5.33219C19.1816 6.92631 20.0896 9.08783 20.0924 11.3425H18.8353C18.8026 9.43723 18.0135 7.6209 16.6381 6.28494C15.2626 4.94898 13.411 4.20033 11.4821 4.20033C9.55329 4.20033 7.70164 4.94898 6.32622 6.28494C4.9508 7.6209 4.1617 9.43723 4.12899 11.3425H2.87401C2.87681 9.08783 3.78481 6.92631 5.3988 5.33219C7.01279 3.73807 9.20095 2.84156 11.4832 2.83935V2.83935Z" fill="#FFD2CC"/>
</g>
<path d="M38.289 19.4809V7.08387H33.7829V4.51897H45.7108V7.08387H41.2047V19.4809H38.289Z" fill="white"/>
<path d="M47.7117 19.4809V4.51897H54.4267C55.3986 4.51897 56.2453 4.68283 56.9669 5.01057C57.6884 5.33831 58.248 5.80142 58.6456 6.3999C59.0432 6.99838 59.242 7.70373 59.242 8.51595V8.77244C59.242 9.67015 59.0211 10.3969 58.5793 10.9526C58.1376 11.5083 57.5927 11.9144 56.9448 12.1709V12.5557C57.5338 12.5842 57.9903 12.7837 58.3143 13.1542C58.6382 13.5104 58.8002 13.9877 58.8002 14.5862V19.4809H55.8845V14.9923C55.8845 14.6504 55.7888 14.3725 55.5974 14.1587C55.4206 13.945 55.1188 13.8381 54.6917 13.8381H50.6274V19.4809H47.7117ZM50.6274 11.2732H54.1174C54.8095 11.2732 55.347 11.0951 55.7299 10.7389C56.1275 10.3684 56.3263 9.8839 56.3263 9.28542V9.07168C56.3263 8.4732 56.1349 7.99584 55.752 7.6396C55.3691 7.26912 54.8243 7.08387 54.1174 7.08387H50.6274V11.2732Z" fill="white"/>
<path d="M60.6232 19.4809L64.6875 4.51897H69.7679L73.8322 19.4809H70.8282L69.9888 16.1893H64.4666L63.6273 19.4809H60.6232ZM65.1514 13.5816H69.3041L67.4265 6.29303H67.0289L65.1514 13.5816Z" fill="white"/>
<path d="M81.4445 19.7802C79.5302 19.7802 78.0134 19.2672 76.8943 18.2412C75.7751 17.201 75.2155 15.7191 75.2155 13.7954V10.2045C75.2155 8.28083 75.7751 6.80601 76.8943 5.78005C78.0134 4.73983 79.5302 4.21973 81.4445 4.21973C83.3442 4.21973 84.8094 4.72558 85.8402 5.7373C86.8857 6.73476 87.4085 8.10984 87.4085 9.86252V9.99077H84.537V9.77703C84.537 8.89356 84.2793 8.16683 83.7639 7.59685C83.2632 7.02688 82.4901 6.74189 81.4445 6.74189C80.4137 6.74189 79.6038 7.04825 79.0148 7.66098C78.4258 8.2737 78.1312 9.1073 78.1312 10.1618V13.8381C78.1312 14.8783 78.4258 15.7119 79.0148 16.3389C79.6038 16.9516 80.4137 17.258 81.4445 17.258C82.4901 17.258 83.2632 16.973 83.7639 16.403C84.2793 15.8188 84.537 15.0921 84.537 14.2229V13.8381H87.4085V14.1374C87.4085 15.8901 86.8857 17.2723 85.8402 18.284C84.8094 19.2814 83.3442 19.7802 81.4445 19.7802Z" fill="white"/>
<path d="M89.7996 19.4809V4.51897H92.7153V10.461H93.1129L98.127 4.51897H101.86L95.4101 11.8931L102.081 19.4809H98.2374L93.1129 13.4106H92.7153V19.4809H89.7996Z" fill="white"/>
<path d="M103.5 19.4809V4.51897H113.44V7.08387H106.416V10.6534H112.821V13.2183H106.416V16.916H113.572V19.4809H103.5Z" fill="white"/>
<path d="M115.746 19.4809V4.51897H122.461C123.433 4.51897 124.28 4.68283 125.001 5.01057C125.723 5.33831 126.282 5.80142 126.68 6.3999C127.078 6.99838 127.276 7.70373 127.276 8.51595V8.77244C127.276 9.67015 127.055 10.3969 126.614 10.9526C126.172 11.5083 125.627 11.9144 124.979 12.1709V12.5557C125.568 12.5842 126.025 12.7837 126.349 13.1542C126.673 13.5104 126.835 13.9877 126.835 14.5862V19.4809H123.919V14.9923C123.919 14.6504 123.823 14.3725 123.632 14.1587C123.455 13.945 123.153 13.8381 122.726 13.8381H118.662V19.4809H115.746ZM118.662 11.2732H122.152C122.844 11.2732 123.381 11.0951 123.764 10.7389C124.162 10.3684 124.361 9.8839 124.361 9.28542V9.07168C124.361 8.4732 124.169 7.99584 123.786 7.6396C123.403 7.26912 122.859 7.08387 122.152 7.08387H118.662V11.2732Z" fill="white"/>
<defs>
<clipPath id="clip0_305_192">
<rect width="22.9663" height="24" fill="white" transform="matrix(1 0 0 -1 0 24)"/>
</clipPath>
</defs>
</svg>
