<svg width="55" height="55" viewBox="0 0 55 55" fill="none" xmlns="http://www.w3.org/2000/svg">
<g clip-path="url(#clip0_42_2113)">
<path d="M27.4998 0C12.3124 0 0 12.3124 0 27.5002C0 42.6886 12.3124 55 27.4998 55C42.6889 55 55 42.6886 55 27.5002C55 12.3134 42.6889 0.00131356 27.4995 0.00131356L27.4998 0ZM40.1111 39.6631C39.6185 40.471 38.5611 40.7271 37.7533 40.2312C31.2966 36.2873 23.1685 35.394 13.5961 37.5811C12.6736 37.7913 11.7542 37.2133 11.544 36.2905C11.3329 35.3678 11.9085 34.4483 12.8332 34.2381C23.3087 31.8438 32.2942 32.8753 39.543 37.3053C40.3508 37.8011 40.6069 38.8553 40.1111 39.6631ZM43.477 32.1742C42.8564 33.184 41.5363 33.5025 40.5281 32.8818C33.1362 28.3372 21.8684 27.0214 13.1252 29.6754C11.9913 30.0179 10.7936 29.3789 10.4495 28.2469C10.108 27.113 10.7473 25.9176 11.8793 25.5728C21.8664 22.5424 34.2823 24.0103 42.771 29.2268C43.7791 29.8475 44.0977 31.1676 43.477 32.1745V32.1742ZM43.766 24.3768C34.9029 19.1124 20.28 18.6283 11.8179 21.1967C10.459 21.6088 9.02201 20.8417 8.61022 19.4828C8.19843 18.1233 8.96487 16.6872 10.3247 16.2741C20.0386 13.3251 36.1869 13.8949 46.3911 19.9527C47.616 20.6782 48.0166 22.2567 47.2909 23.4774C46.5684 24.6996 44.9856 25.1026 43.7673 24.3768H43.766Z" fill="white"/>
</g>
<defs>
<clipPath id="clip0_42_2113">
<rect width="55" height="55" fill="white"/>
</clipPath>
</defs>
</svg>
