<svg width="156" height="29" viewBox="0 0 156 29" fill="none" xmlns="http://www.w3.org/2000/svg">
<path d="M14.3438 29C10.6307 29 7.06977 27.5558 4.44426 24.985C1.81875 22.4143 0.34375 18.9276 0.34375 15.292H28.3438C28.3438 18.9276 26.8688 22.4143 24.2432 24.985C21.6177 27.5558 18.0568 29 14.3438 29V29Z" fill="#5E00F5"/>
<path d="M26.8111 13.7056C26.764 10.4981 25.4296 7.43755 23.0964 5.18564C20.7632 2.93373 17.6186 1.67133 14.3425 1.67133C11.0663 1.67133 7.92172 2.93373 5.58851 5.18564C3.25531 7.43755 1.92092 10.4981 1.87379 13.7056H0.34375C0.34375 10.07 1.81875 6.5833 4.44426 4.01255C7.06977 1.44181 10.6307 -0.00242519 14.3438 -0.00242519C18.0568 -0.00242519 21.6177 1.44181 24.2432 4.01255C26.8688 6.5833 28.3438 10.07 28.3438 13.7056H26.8111Z" fill="#FF7966"/>
<path d="M14.3438 3.43089C17.1263 3.43356 19.794 4.51685 21.7617 6.44307C23.7295 8.3693 24.8365 10.9811 24.8399 13.7056H23.3073C23.2674 11.4033 22.3054 9.2086 20.6285 7.59431C18.9516 5.98002 16.6941 5.07541 14.3425 5.07541C11.9909 5.07541 9.7334 5.98002 8.05652 7.59431C6.37963 9.2086 5.41759 11.4033 5.3777 13.7056H3.84766C3.85107 10.9811 4.95809 8.3693 6.92583 6.44307C8.89357 4.51685 11.5613 3.43356 14.3438 3.43089Z" fill="#FFD2CC"/>
<path d="M46.8375 23.5395V8.55972H41.3438V5.46046H55.886V8.55972H50.3922V23.5395H46.8375Z" fill="white"/>
<path d="M58.3254 23.5395V5.46046H66.5122C67.6971 5.46046 68.7294 5.65847 69.6091 6.05448C70.4888 6.4505 71.1711 7.01009 71.6558 7.73325C72.1405 8.45641 72.3829 9.30871 72.3829 10.2901V10.6001C72.3829 11.6848 72.1136 12.5629 71.575 13.2344C71.0364 13.906 70.3721 14.3967 69.5822 14.7066V15.1715C70.3003 15.2059 70.8569 15.447 71.2519 15.8946C71.6468 16.3251 71.8443 16.9019 71.8443 17.6251V23.5395H68.2896V18.1158C68.2896 17.7025 68.1729 17.3668 67.9395 17.1085C67.724 16.8503 67.356 16.7211 66.8353 16.7211H61.8802V23.5395H58.3254ZM61.8802 13.6219H66.1351C66.979 13.6219 67.6343 13.4066 68.101 12.9762C68.5858 12.5285 68.8282 11.9431 68.8282 11.2199V10.9616C68.8282 10.2385 68.5948 9.66168 68.128 9.23123C67.6612 8.78356 66.9969 8.55972 66.1351 8.55972H61.8802V13.6219Z" fill="white"/>
<path d="M74.0669 23.5395L79.022 5.46046H85.2159L90.171 23.5395H86.5085L85.4852 19.5621H78.7527L77.7294 23.5395H74.0669ZM79.5875 16.4112H84.6504L82.3613 7.60411H81.8766L79.5875 16.4112Z" fill="white"/>
<path d="M99.4518 23.9011C97.1178 23.9011 95.2686 23.2812 93.9042 22.0415C92.5397 20.7846 91.8575 18.9939 91.8575 16.6695V12.3305C91.8575 10.006 92.5397 8.22397 93.9042 6.98426C95.2686 5.72734 97.1178 5.09888 99.4518 5.09888C101.768 5.09888 103.554 5.71012 104.811 6.93261C106.086 8.13788 106.723 9.79943 106.723 11.9173V12.0722H103.222V11.8139C103.222 10.7464 102.908 9.8683 102.279 9.17957C101.669 8.49085 100.726 8.14649 99.4518 8.14649C98.195 8.14649 97.2076 8.51668 96.4895 9.25706C95.7713 9.99744 95.4123 11.0047 95.4123 12.2788V16.7211C95.4123 17.978 95.7713 18.9853 96.4895 19.7429C97.2076 20.4833 98.195 20.8535 99.4518 20.8535C100.726 20.8535 101.669 20.5091 102.279 19.8204C102.908 19.1144 103.222 18.2363 103.222 17.186V16.7211H106.723V17.0827C106.723 19.2005 106.086 20.8707 104.811 22.0932C103.554 23.2984 101.768 23.9011 99.4518 23.9011Z" fill="white"/>
<path d="M109.638 23.5395V5.46046H113.193V12.6404H113.678L119.791 5.46046H124.342L116.478 14.3708L124.611 23.5395H119.925L113.678 16.2046H113.193V23.5395H109.638Z" fill="white"/>
<path d="M126.669 23.5395V5.46046H138.787V8.55972H130.223V12.8729H138.033V15.9721H130.223V20.4402H138.949V23.5395H126.669Z" fill="white"/>
<path d="M141.599 23.5395V5.46046H149.786C150.971 5.46046 152.003 5.65847 152.883 6.05448C153.762 6.4505 154.445 7.01009 154.929 7.73325C155.414 8.45641 155.656 9.30871 155.656 10.2901V10.6001C155.656 11.6848 155.387 12.5629 154.848 13.2344C154.31 13.906 153.646 14.3967 152.856 14.7066V15.1715C153.574 15.2059 154.13 15.447 154.525 15.8946C154.92 16.3251 155.118 16.9019 155.118 17.6251V23.5395H151.563V18.1158C151.563 17.7025 151.446 17.3668 151.213 17.1085C150.997 16.8503 150.629 16.7211 150.109 16.7211H145.154V23.5395H141.599ZM145.154 13.6219H149.409C150.252 13.6219 150.908 13.4066 151.374 12.9762C151.859 12.5285 152.102 11.9431 152.102 11.2199V10.9616C152.102 10.2385 151.868 9.66168 151.401 9.23123C150.935 8.78356 150.27 8.55972 149.409 8.55972H145.154V13.6219Z" fill="white"/>
</svg>
