<svg width="23" height="23" viewBox="0 0 23 23" fill="none" xmlns="http://www.w3.org/2000/svg">
<g clip-path="url(#clip0_32_3251)">
<path d="M11.4995 0.0379639C5.16778 0.0379639 0.034668 5.17093 0.034668 11.5026C0.034668 17.8346 5.16778 22.9672 11.4995 22.9672C17.8319 22.9672 22.9644 17.8346 22.9644 11.5026C22.9644 5.17134 17.8319 0.0385115 11.4994 0.0385115L11.4995 0.0379639ZM16.7572 16.5733C16.5518 16.9101 16.111 17.0169 15.7742 16.8102C13.0824 15.1659 9.69371 14.7936 5.70294 15.7053C5.31837 15.793 4.93504 15.552 4.84742 15.1673C4.75939 14.7826 4.99938 14.3993 5.38491 14.3117C9.75217 13.3135 13.4983 13.7435 16.5203 15.5903C16.8571 15.7971 16.9639 16.2365 16.7572 16.5733ZM18.1605 13.4512C17.9017 13.8722 17.3513 14.005 16.931 13.7462C13.8493 11.8516 9.15171 11.303 5.50662 12.4095C5.03388 12.5523 4.53459 12.2859 4.39112 11.814C4.24874 11.3412 4.51529 10.8429 4.9872 10.6991C9.15089 9.43579 14.3271 10.0478 17.8661 12.2225C18.2864 12.4812 18.4192 13.0316 18.1605 13.4513V13.4512ZM18.2809 10.2005C14.5859 8.00582 8.4895 7.80402 4.9616 8.87475C4.39509 9.04657 3.79599 8.72676 3.62431 8.16025C3.45263 7.59346 3.77217 6.99478 4.33909 6.82255C8.38887 5.59315 15.1212 5.83068 19.3753 8.35616C19.886 8.65858 20.053 9.31668 19.7505 9.82556C19.4493 10.3351 18.7894 10.5031 18.2815 10.2005H18.2809Z" fill="white"/>
</g>
<defs>
<clipPath id="clip0_32_3251">
<rect width="23" height="23" fill="white"/>
</clipPath>
</defs>
</svg>
