<svg width="40" height="40" viewBox="0 0 40 40" fill="none" xmlns="http://www.w3.org/2000/svg">
<rect width="40" height="40" rx="12" fill="#ACDCF5"/>
<g clip-path="url(#clip0_12_3199)">
<path d="M22.8953 23.1225L27.6428 18.5009C26.6566 14.5866 22.74 12.2273 18.8947 13.2311C17.1631 13.6832 15.6591 14.7759 14.6763 16.296C14.7498 16.2941 22.8953 23.1225 22.8953 23.1225Z" fill="#0364B8"/>
<path d="M17.7704 17.166L17.7702 17.1668C16.863 16.5949 15.8168 16.2926 14.7498 16.2941C14.7251 16.2941 14.7009 16.2957 14.6763 16.296C11.5023 16.336 8.96115 18.9876 9.00045 22.2185C9.0147 23.3905 9.37444 24.5312 10.033 25.4926L17.1455 24.5858L22.5985 20.1099L17.7704 17.166Z" fill="#0078D4"/>
<path d="M27.6429 18.5009C27.5385 18.4938 27.4336 18.4889 27.3275 18.4889C26.6906 18.4883 26.0604 18.6207 25.4758 18.878L25.4756 18.8775L22.5986 20.1099L25.7703 24.098L31.4404 25.5011C32.6641 23.1887 31.8145 20.3044 29.5429 19.0588C28.9559 18.737 28.3081 18.5468 27.6429 18.5009V18.5009H27.6429Z" fill="#1490DF"/>
<path d="M10.033 25.4925C11.1069 27.0643 12.8689 28.001 14.7497 28H27.3273C29.0455 28.0005 30.6252 27.0407 31.4403 25.5011L22.5984 20.1099L10.033 25.4925Z" fill="#28A8EA"/>
</g>
<defs>
<clipPath id="clip0_12_3199">
<rect width="23" height="15" fill="white" transform="translate(9 13)"/>
</clipPath>
</defs>
</svg>
