<svg width="22" height="22" viewBox="0 0 22 22" fill="none" xmlns="http://www.w3.org/2000/svg">
<g clip-path="url(#clip0_32_3002)">
<path d="M10.9996 0.0362549C4.94314 0.0362549 0.0332031 4.94605 0.0332031 11.0025C0.0332031 17.0591 4.94314 21.9685 10.9996 21.9685C17.0566 21.9685 21.966 17.0591 21.966 11.0025C21.966 4.94644 17.0566 0.0367787 10.9994 0.0367787L10.9996 0.0362549ZM16.0287 15.8527C15.8322 16.1748 15.4106 16.277 15.0884 16.0792C12.5136 14.5065 9.27229 14.1503 5.45503 15.0224C5.08718 15.1063 4.72052 14.8758 4.63671 14.5078C4.5525 14.1398 4.78206 13.7732 5.15083 13.6893C9.32821 12.7346 12.9115 13.1459 15.8021 14.9124C16.1242 15.1102 16.2264 15.5305 16.0287 15.8527ZM17.3709 12.8663C17.1234 13.269 16.597 13.396 16.195 13.1485C13.2472 11.3363 8.75385 10.8115 5.26724 11.8699C4.81506 12.0065 4.33748 11.7516 4.20024 11.3003C4.06405 10.8481 4.31902 10.3714 4.77041 10.2339C8.75307 9.02548 13.7042 9.61084 17.0894 11.691C17.4914 11.9385 17.6184 12.4649 17.3709 12.8664V12.8663ZM17.4862 9.75698C13.9517 7.65768 8.12043 7.46466 4.74592 8.48884C4.20404 8.65318 3.63099 8.34728 3.46678 7.8054C3.30256 7.26325 3.60821 6.6906 4.15048 6.52586C8.02418 5.34991 14.4638 5.57711 18.533 7.99279C19.0214 8.28206 19.1812 8.91155 18.8918 9.3983C18.6037 9.8857 17.9725 10.0464 17.4867 9.75698H17.4862Z" fill="white"/>
</g>
<defs>
<clipPath id="clip0_32_3002">
<rect width="22" height="22" fill="white"/>
</clipPath>
</defs>
</svg>
