<svg width="24" height="24" viewBox="0 0 24 24" fill="none" xmlns="http://www.w3.org/2000/svg">
<g clip-path="url(#clip0_66_3693)">
<path d="M17.17 24C17.0384 24.0008 16.9079 23.9756 16.7861 23.9258C16.6642 23.876 16.5534 23.8027 16.46 23.71L8.28998 15.54C7.82435 15.0756 7.45492 14.5238 7.20286 13.9164C6.95079 13.3089 6.82104 12.6577 6.82104 12C6.82104 11.3424 6.95079 10.6912 7.20286 10.0837C7.45492 9.47626 7.82435 8.92451 8.28998 8.46005L16.46 0.290063C16.5532 0.196825 16.6639 0.122864 16.7857 0.0724035C16.9076 0.0219432 17.0381 -0.00402832 17.17 -0.00402832C17.3018 -0.00402832 17.4324 0.0219432 17.5542 0.0724035C17.6761 0.122864 17.7867 0.196825 17.88 0.290063C17.9732 0.383301 18.0472 0.493991 18.0976 0.615813C18.1481 0.737635 18.1741 0.868203 18.1741 1.00006C18.1741 1.13192 18.1481 1.26249 18.0976 1.38431C18.0472 1.50613 17.9732 1.61682 17.88 1.71006L9.70998 9.88005C9.14818 10.4426 8.83262 11.205 8.83262 12C8.83262 12.7951 9.14818 13.5575 9.70998 14.12L17.88 22.29C17.9737 22.383 18.0481 22.4936 18.0989 22.6155C18.1496 22.7373 18.1758 22.868 18.1758 23C18.1758 23.132 18.1496 23.2628 18.0989 23.3846C18.0481 23.5065 17.9737 23.6171 17.88 23.71C17.7865 23.8027 17.6757 23.876 17.5539 23.9258C17.4321 23.9756 17.3016 24.0008 17.17 24Z" fill="#A2A2B5"/>
</g>
<defs>
<clipPath id="clip0_66_3693">
<rect width="24" height="24" fill="white"/>
</clipPath>
</defs>
</svg>
