<svg width="40" height="40" viewBox="0 0 40 40" fill="none" xmlns="http://www.w3.org/2000/svg">
<rect width="40" height="40" rx="12" fill="#ACDCF5"/>
<g clip-path="url(#clip0_32_3260)">
<path d="M22.7078 23.4722L28.0745 18.2344C26.9597 13.7982 22.5323 11.1242 18.1854 12.2619C16.2279 12.7743 14.5278 14.0127 13.4167 15.7354C13.4998 15.7333 22.7078 23.4722 22.7078 23.4722Z" fill="#0364B8"/>
<path d="M16.9144 16.7215L16.9141 16.7224C15.8886 16.0742 14.706 15.7316 13.4997 15.7333C13.4719 15.7333 13.4445 15.7351 13.4167 15.7354C9.82869 15.7808 6.95608 18.786 7.00051 22.4477C7.01661 23.776 7.42328 25.0686 8.16779 26.1582L16.208 25.1306L22.3723 20.0579L16.9144 16.7215Z" fill="#0078D4"/>
<path d="M28.0745 18.2344C27.9565 18.2264 27.8379 18.2208 27.718 18.2208C26.998 18.2201 26.2856 18.3702 25.6247 18.6618L25.6246 18.6612L22.3723 20.0579L25.9577 24.5778L32.3674 26.168C33.7506 23.5473 32.7902 20.2784 30.2224 18.8668C29.5588 18.502 28.8265 18.2864 28.0745 18.2345V18.2344H28.0745Z" fill="#1490DF"/>
<path d="M8.16785 26.1582C9.38185 27.9395 11.3737 29.0011 13.4998 29H27.718C29.6603 29.0006 31.446 27.9128 32.3674 26.1679L22.3723 20.0579L8.16785 26.1582Z" fill="#28A8EA"/>
</g>
<defs>
<clipPath id="clip0_32_3260">
<rect width="26" height="17" fill="white" transform="translate(7 12)"/>
</clipPath>
</defs>
</svg>
