<svg width="95" height="95" viewBox="0 0 95 95" fill="none" xmlns="http://www.w3.org/2000/svg">
<rect width="95" height="95" rx="28.6059" fill="#ACDCF5"/>
<g clip-path="url(#clip0_42_2122)">
<path d="M54.1853 57L67 44.2161C64.3381 33.3888 53.7661 26.8626 43.3867 29.6393C38.7126 30.8897 34.6529 33.9123 32 38.117C32.1984 38.1118 54.1853 57 54.1853 57Z" fill="#0364B8"/>
<path d="M40.8632 40.3699L40.8626 40.372C38.3944 38.8176 35.5478 37.996 32.6444 38C32.5773 38 32.5114 38.0043 32.4445 38.0051C23.8085 38.1139 16.8943 45.3206 17.0012 54.1017C17.04 57.2871 18.0188 60.3871 19.8108 63L39.163 60.5355L54 48.3708L40.8632 40.3699Z" fill="#0078D4"/>
<path d="M67.4134 44.0325C67.1359 44.0133 66.857 44 66.5748 44C64.8812 43.9983 63.2053 44.3571 61.6507 45.0542L61.6504 45.0529L54 48.3922L62.434 59.1983L77.5118 63C80.7656 56.7345 78.5064 48.9193 72.4659 45.5443C70.9051 44.6722 69.1823 44.1568 67.4135 44.0326V44.0325H67.4134Z" fill="#1490DF"/>
<path d="M20 63.0085C22.9096 67.391 27.6836 70.0028 32.7793 70H66.8566C71.5117 70.0014 75.7916 67.3253 78 63.0324L54.0444 48L20 63.0085Z" fill="#28A8EA"/>
</g>
<defs>
<clipPath id="clip0_42_2122">
<rect width="62" height="41" fill="white" transform="translate(17 29)"/>
</clipPath>
</defs>
</svg>
